<mxfile host="app.diagrams.net" modified="2021-05-29T09:28:02.769Z" agent="5.0 (X11; Linux x86_64) AppleWebKit/537.36 (KHTML, like Gecko) Chrome/90.0.4430.93 Safari/537.36" etag="4V9Gm9GNK6NINESlCK4a" version="14.6.13" type="github">
  <diagram id="asCBje-i30miSvZEYgSj" name="第 1 页">
    <mxGraphModel dx="1185" dy="751" grid="1" gridSize="10" guides="1" tooltips="1" connect="1" arrows="1" fold="1" page="1" pageScale="1" pageWidth="827" pageHeight="1169" math="0" shadow="0">
      <root>
        <mxCell id="0" />
        <mxCell id="1" parent="0" />
        <mxCell id="Mn7SLbsGn0sgGQLMaBHH-30" style="edgeStyle=orthogonalEdgeStyle;rounded=0;orthogonalLoop=1;jettySize=auto;html=1;exitX=1;exitY=0;exitDx=0;exitDy=27.5;exitPerimeter=0;entryX=0;entryY=0.5;entryDx=0;entryDy=0;" edge="1" parent="1" source="Mn7SLbsGn0sgGQLMaBHH-2" target="Mn7SLbsGn0sgGQLMaBHH-3">
          <mxGeometry relative="1" as="geometry" />
        </mxCell>
        <mxCell id="Mn7SLbsGn0sgGQLMaBHH-32" style="edgeStyle=orthogonalEdgeStyle;rounded=0;orthogonalLoop=1;jettySize=auto;html=1;exitX=1;exitY=0;exitDx=0;exitDy=52.5;exitPerimeter=0;entryX=0;entryY=0.5;entryDx=0;entryDy=0;" edge="1" parent="1" source="Mn7SLbsGn0sgGQLMaBHH-2" target="Mn7SLbsGn0sgGQLMaBHH-19">
          <mxGeometry relative="1" as="geometry" />
        </mxCell>
        <mxCell id="Mn7SLbsGn0sgGQLMaBHH-2" value="Router" style="shape=cylinder3;whiteSpace=wrap;html=1;boundedLbl=1;backgroundOutline=1;size=15;fillColor=#dae8fc;strokeColor=#6c8ebf;" vertex="1" parent="1">
          <mxGeometry x="400" y="480" width="80" height="80" as="geometry" />
        </mxCell>
        <mxCell id="Mn7SLbsGn0sgGQLMaBHH-33" style="edgeStyle=orthogonalEdgeStyle;rounded=0;orthogonalLoop=1;jettySize=auto;html=1;exitX=1;exitY=0.5;exitDx=0;exitDy=0;entryX=0;entryY=0.5;entryDx=0;entryDy=0;" edge="1" parent="1" source="Mn7SLbsGn0sgGQLMaBHH-3" target="Mn7SLbsGn0sgGQLMaBHH-14">
          <mxGeometry relative="1" as="geometry" />
        </mxCell>
        <mxCell id="Mn7SLbsGn0sgGQLMaBHH-3" value="Writer" style="ellipse;whiteSpace=wrap;html=1;aspect=fixed;fillColor=#fa6800;strokeColor=#C73500;fontColor=#000000;" vertex="1" parent="1">
          <mxGeometry x="600" y="400" width="80" height="80" as="geometry" />
        </mxCell>
        <mxCell id="Mn7SLbsGn0sgGQLMaBHH-27" style="edgeStyle=orthogonalEdgeStyle;rounded=0;orthogonalLoop=1;jettySize=auto;html=1;exitX=1;exitY=0.5;exitDx=0;exitDy=0;entryX=0;entryY=0;entryDx=0;entryDy=27.5;entryPerimeter=0;" edge="1" parent="1" source="Mn7SLbsGn0sgGQLMaBHH-5" target="Mn7SLbsGn0sgGQLMaBHH-2">
          <mxGeometry relative="1" as="geometry" />
        </mxCell>
        <mxCell id="Mn7SLbsGn0sgGQLMaBHH-5" value="Listener" style="ellipse;whiteSpace=wrap;html=1;aspect=fixed;fillColor=#d80073;strokeColor=#A50040;fontColor=#ffffff;" vertex="1" parent="1">
          <mxGeometry x="200" y="360" width="80" height="80" as="geometry" />
        </mxCell>
        <mxCell id="Mn7SLbsGn0sgGQLMaBHH-23" style="edgeStyle=orthogonalEdgeStyle;rounded=0;orthogonalLoop=1;jettySize=auto;html=1;exitX=1;exitY=0.5;exitDx=0;exitDy=0;entryX=0;entryY=0.5;entryDx=0;entryDy=0;" edge="1" parent="1" source="Mn7SLbsGn0sgGQLMaBHH-7" target="Mn7SLbsGn0sgGQLMaBHH-5">
          <mxGeometry relative="1" as="geometry" />
        </mxCell>
        <mxCell id="Mn7SLbsGn0sgGQLMaBHH-7" value="Kusama" style="rounded=0;whiteSpace=wrap;html=1;" vertex="1" parent="1">
          <mxGeometry x="40" y="380" width="120" height="40" as="geometry" />
        </mxCell>
        <mxCell id="Mn7SLbsGn0sgGQLMaBHH-25" style="edgeStyle=orthogonalEdgeStyle;rounded=0;orthogonalLoop=1;jettySize=auto;html=1;exitX=1;exitY=0.5;exitDx=0;exitDy=0;entryX=0;entryY=0.5;entryDx=0;entryDy=0;" edge="1" parent="1" source="Mn7SLbsGn0sgGQLMaBHH-10" target="Mn7SLbsGn0sgGQLMaBHH-13">
          <mxGeometry relative="1" as="geometry" />
        </mxCell>
        <mxCell id="Mn7SLbsGn0sgGQLMaBHH-10" value="ChainX" style="rounded=0;whiteSpace=wrap;html=1;" vertex="1" parent="1">
          <mxGeometry x="40" y="620" width="120" height="40" as="geometry" />
        </mxCell>
        <mxCell id="Mn7SLbsGn0sgGQLMaBHH-24" style="edgeStyle=orthogonalEdgeStyle;rounded=0;orthogonalLoop=1;jettySize=auto;html=1;exitX=1;exitY=0.5;exitDx=0;exitDy=0;entryX=0;entryY=0.5;entryDx=0;entryDy=0;" edge="1" parent="1" source="Mn7SLbsGn0sgGQLMaBHH-11" target="Mn7SLbsGn0sgGQLMaBHH-12">
          <mxGeometry relative="1" as="geometry" />
        </mxCell>
        <mxCell id="Mn7SLbsGn0sgGQLMaBHH-11" value="Polkadot" style="rounded=0;whiteSpace=wrap;html=1;" vertex="1" parent="1">
          <mxGeometry x="40" y="500" width="120" height="40" as="geometry" />
        </mxCell>
        <mxCell id="Mn7SLbsGn0sgGQLMaBHH-28" style="edgeStyle=orthogonalEdgeStyle;rounded=0;orthogonalLoop=1;jettySize=auto;html=1;exitX=1;exitY=0.5;exitDx=0;exitDy=0;entryX=0;entryY=0.5;entryDx=0;entryDy=0;entryPerimeter=0;" edge="1" parent="1" source="Mn7SLbsGn0sgGQLMaBHH-12" target="Mn7SLbsGn0sgGQLMaBHH-2">
          <mxGeometry relative="1" as="geometry" />
        </mxCell>
        <mxCell id="Mn7SLbsGn0sgGQLMaBHH-12" value="Listener" style="ellipse;whiteSpace=wrap;html=1;aspect=fixed;fillColor=#d80073;strokeColor=#A50040;fontColor=#ffffff;" vertex="1" parent="1">
          <mxGeometry x="200" y="480" width="80" height="80" as="geometry" />
        </mxCell>
        <mxCell id="Mn7SLbsGn0sgGQLMaBHH-29" style="edgeStyle=orthogonalEdgeStyle;rounded=0;orthogonalLoop=1;jettySize=auto;html=1;exitX=1;exitY=0.5;exitDx=0;exitDy=0;entryX=-0.01;entryY=0.737;entryDx=0;entryDy=0;entryPerimeter=0;" edge="1" parent="1" source="Mn7SLbsGn0sgGQLMaBHH-13" target="Mn7SLbsGn0sgGQLMaBHH-2">
          <mxGeometry relative="1" as="geometry" />
        </mxCell>
        <mxCell id="Mn7SLbsGn0sgGQLMaBHH-13" value="Listener" style="ellipse;whiteSpace=wrap;html=1;aspect=fixed;fillColor=#d80073;strokeColor=#A50040;fontColor=#ffffff;" vertex="1" parent="1">
          <mxGeometry x="200" y="600" width="80" height="80" as="geometry" />
        </mxCell>
        <mxCell id="Mn7SLbsGn0sgGQLMaBHH-14" value="Alaya" style="rounded=0;whiteSpace=wrap;html=1;" vertex="1" parent="1">
          <mxGeometry x="720" y="420" width="120" height="40" as="geometry" />
        </mxCell>
        <mxCell id="Mn7SLbsGn0sgGQLMaBHH-34" style="edgeStyle=orthogonalEdgeStyle;rounded=0;orthogonalLoop=1;jettySize=auto;html=1;exitX=1;exitY=0.5;exitDx=0;exitDy=0;entryX=0;entryY=0.5;entryDx=0;entryDy=0;" edge="1" parent="1" source="Mn7SLbsGn0sgGQLMaBHH-19" target="Mn7SLbsGn0sgGQLMaBHH-20">
          <mxGeometry relative="1" as="geometry" />
        </mxCell>
        <mxCell id="Mn7SLbsGn0sgGQLMaBHH-19" value="&lt;span&gt;Writer&lt;/span&gt;" style="ellipse;whiteSpace=wrap;html=1;aspect=fixed;fillColor=#fa6800;strokeColor=#C73500;fontColor=#000000;" vertex="1" parent="1">
          <mxGeometry x="600" y="560" width="80" height="80" as="geometry" />
        </mxCell>
        <mxCell id="Mn7SLbsGn0sgGQLMaBHH-20" value="PlatON" style="rounded=0;whiteSpace=wrap;html=1;" vertex="1" parent="1">
          <mxGeometry x="720" y="580" width="120" height="40" as="geometry" />
        </mxCell>
      </root>
    </mxGraphModel>
  </diagram>
</mxfile>
